<svg xmlns="http://www.w3.org/2000/svg" xmlns:xlink="http://www.w3.org/1999/xlink" width="11" height="10" viewBox="0 0 11 10">
  <defs>
    <style>
      .a {
        fill: #ed1b2e;
      }

      .b {
        clip-path: url(#a);
      }
    </style>
    <clipPath id="a">
      <path class="a" d="M1.528,10C.684,10,0,9.067,0,7.917V.417C0,.186.137,0,.306,0S.611.186.611.417v7.5c0,.69.41,1.5.917,1.5h9.166c.169,0,.306.064.306.294s-.137.294-.306.294ZM2.534,5.8a.286.286,0,0,1,0-.416L4.979,3.027a.314.314,0,0,1,.432,0L7.028,4.584l2.929-2.82H8.25a.294.294,0,1,1,0-.588h2.444A.3.3,0,0,1,11,1.471V3.823a.306.306,0,0,1-.611,0V2.181L7.244,5.208a.314.314,0,0,1-.432,0L5.194,3.651,2.966,5.8a.314.314,0,0,1-.432,0Z" transform="translate(0 0)" />
    </clipPath>
  </defs>
  <g transform="translate(0 0)">
    <path class="a" d="M1.528,10C.684,10,0,9.067,0,7.917V.417C0,.186.137,0,.306,0S.611.186.611.417v7.5c0,.69.41,1.5.917,1.5h9.166c.169,0,.306.064.306.294s-.137.294-.306.294ZM2.534,5.8a.286.286,0,0,1,0-.416L4.979,3.027a.314.314,0,0,1,.432,0L7.028,4.584l2.929-2.82H8.25a.294.294,0,1,1,0-.588h2.444A.3.3,0,0,1,11,1.471V3.823a.306.306,0,0,1-.611,0V2.181L7.244,5.208a.314.314,0,0,1-.432,0L5.194,3.651,2.966,5.8a.314.314,0,0,1-.432,0Z" transform="translate(0 0)" />
    <g class="b">
      <g transform="translate(-1.833 -2.353)">
        <rect class="a" width="14.667" height="14.118" />
      </g>
    </g>
  </g>
</svg>