<svg xmlns="http://www.w3.org/2000/svg" xmlns:xlink="http://www.w3.org/1999/xlink" width="19" height="18" viewBox="0 0 19 18">
  <defs>
    <style>
      .a {
        fill: #ed1b2e;
      }

      .b {
        clip-path: url(#a);
      }
    </style>
    <clipPath id="a">
      <path class="a" d="M2.639,18C1.182,18,0,16.321,0,14.25V.75C0,.335.237,0,.528,0s.527.335.527.75v13.5c0,1.243.709,2.691,1.584,2.691H18.472a.529.529,0,0,1,0,1.059Zm1.738-7.567a.53.53,0,0,1,0-.748L8.6,5.449a.526.526,0,0,1,.746,0l2.794,2.8L17.2,3.176H14.25a.529.529,0,0,1,0-1.059h4.222a.529.529,0,0,1,.528.53V6.882a.528.528,0,1,1-1.055,0V3.925L12.512,9.374a.527.527,0,0,1-.747,0l-2.794-2.8-3.848,3.86a.527.527,0,0,1-.747,0Z" transform="translate(0)" />
    </clipPath>
  </defs>
  <g class="b" transform="translate(0)">
    <g transform="translate(-3.167 -4.235)">
      <rect class="a" width="25.333" height="25.412" />
    </g>
  </g>
</svg>