<svg xmlns="http://www.w3.org/2000/svg" width="15.079" height="9.391" viewBox="0 0 15.079 9.391">
  <defs>
    <style>
      .a {
        fill: #ed1b2e;
      }
    </style>
  </defs>
  <path class="a" d="M14.323,9.391a.72.72,0,0,1-.757-.673,2.416,2.416,0,0,0-.95-1.866,3.8,3.8,0,0,0-2.152-.814A5.682,5.682,0,0,0,9.35,4.846c.043-.083.087-.175.13-.273a2.079,2.079,0,0,0,.7.121,1.79,1.79,0,0,0,1.882-1.677A1.79,1.79,0,0,0,10.18,1.34a2.059,2.059,0,0,0-.7.121A4.248,4.248,0,0,0,8.725.29,3.7,3.7,0,0,1,10.174,0a3.224,3.224,0,0,1,3.391,3.017,2.845,2.845,0,0,1-1.037,2.171A3.986,3.986,0,0,1,15.08,8.713.721.721,0,0,1,14.323,9.391ZM9.8,8.863h0V8.714H8.3c0-1.448-1.431-2.626-3.26-2.683l-.137,0-.137,0C2.936,6.088,1.5,7.267,1.5,8.714H0A3.984,3.984,0,0,1,2.544,5.189,2.841,2.841,0,0,1,1.5,3.017,3.227,3.227,0,0,1,4.9,0,3.227,3.227,0,0,1,8.3,3.017a2.841,2.841,0,0,1-1.04,2.173A3.985,3.985,0,0,1,9.8,8.714C9.8,8.762,9.8,8.812,9.8,8.863ZM4.906,1.34A1.788,1.788,0,0,0,3.028,3.017,1.787,1.787,0,0,0,4.906,4.693,1.787,1.787,0,0,0,6.782,3.017,1.787,1.787,0,0,0,4.906,1.34Z" />
</svg>